<?xml version="1.0" encoding="UTF-8" standalone="no"?>
<!DOCTYPE svg PUBLIC "-//W3C//DTD SVG 1.1//EN"
 "http://www.w3.org/Graphics/SVG/1.1/DTD/svg11.dtd">
<!-- Generated by graphviz version 12.2.1 (20241206.2353)
 -->
<!-- Title: G Pages: 1 -->
<svg width="704pt" height="972pt"
 viewBox="0.00 0.00 703.50 971.50" xmlns="http://www.w3.org/2000/svg" xmlns:xlink="http://www.w3.org/1999/xlink">
<g id="graph0" class="graph" transform="scale(1 1) rotate(0) translate(4 967.5)">
<title>G</title>
<polygon fill="white" stroke="none" points="-4,4 -4,-967.5 699.5,-967.5 699.5,4 -4,4"/>
<!-- start -->
<g id="node1" class="node">
<title>start</title>
<polygon fill="none" stroke="black" points="169.5,-963.5 75.5,-963.5 75.5,-922.5 169.5,-922.5 169.5,-963.5"/>
<text text-anchor="middle" x="122.5" y="-946.2" font-family="Times New Roman,serif" font-size="14.00">Begin Phase 2</text>
<text text-anchor="middle" x="122.5" y="-929.7" font-family="Times New Roman,serif" font-size="14.00">Remediation</text>
</g>
<!-- checkp1 -->
<g id="node2" class="node">
<title>checkp1</title>
<polygon fill="none" stroke="black" points="122.5,-885.5 52.5,-844.5 122.5,-803.5 192.5,-844.5 122.5,-885.5"/>
<text text-anchor="middle" x="122.5" y="-847.7" font-family="Times New Roman,serif" font-size="14.00">Ready for</text>
<text text-anchor="middle" x="122.5" y="-831.2" font-family="Times New Roman,serif" font-size="14.00">phase 2?</text>
</g>
<!-- start&#45;&gt;checkp1 -->
<g id="edge1" class="edge">
<title>start:s&#45;&gt;checkp1:n</title>
<path fill="none" stroke="black" d="M122.5,-922.5C122.5,-910.68 122.5,-905.23 122.5,-897"/>
<polygon fill="black" stroke="black" points="126,-897.01 122.5,-887.01 119,-897.01 126,-897.01"/>
</g>
<!-- check -->
<g id="node3" class="node">
<title>check</title>
<polygon fill="none" stroke="black" points="256.5,-751 179.75,-710 256.5,-669 333.25,-710 256.5,-751"/>
<text text-anchor="middle" x="256.5" y="-713.2" font-family="Times New Roman,serif" font-size="14.00">Already</text>
<text text-anchor="middle" x="256.5" y="-696.7" font-family="Times New Roman,serif" font-size="14.00">compliant?</text>
</g>
<!-- checkp1&#45;&gt;check -->
<g id="edge2" class="edge">
<title>checkp1:e&#45;&gt;check:n</title>
<path fill="none" stroke="black" d="M194.16,-844.5C240.3,-844.5 254.39,-807.33 256.27,-762.29"/>
<polygon fill="black" stroke="black" points="259.77,-762.58 256.47,-752.51 252.77,-762.44 259.77,-762.58"/>
<text text-anchor="middle" x="265.83" y="-772.2" font-family="Times New Roman,serif" font-size="14.00">Yes</text>
</g>
<!-- endf -->
<g id="node10" class="node">
<title>endf</title>
<polygon fill="none" stroke="red" points="317.25,-36 233.75,-36 233.75,0 317.25,0 317.25,-36"/>
<text text-anchor="middle" x="275.5" y="-12.95" font-family="Times New Roman,serif" font-size="14.00">End, Failure</text>
</g>
<!-- checkp1&#45;&gt;endf -->
<g id="edge3" class="edge">
<title>checkp1:w&#45;&gt;endf:w</title>
<path fill="none" stroke="black" d="M50.85,-844.5C-12.41,-844.5 1.5,-774.26 1.5,-711 1.5,-711 1.5,-711 1.5,-128.5 1.5,-74.88 155.97,-24.29 221.59,-18.54"/>
<polygon fill="black" stroke="black" points="221.42,-22.05 231.24,-18.07 221.08,-15.06 221.42,-22.05"/>
</g>
<!-- step1 -->
<g id="node4" class="node">
<title>step1</title>
<polygon fill="none" stroke="black" points="313.63,-616.5 199.38,-616.5 199.38,-580.5 313.63,-580.5 313.63,-616.5"/>
<text text-anchor="middle" x="256.5" y="-593.45" font-family="Times New Roman,serif" font-size="14.00">Enable revocation</text>
</g>
<!-- check&#45;&gt;step1 -->
<g id="edge5" class="edge">
<title>check:s&#45;&gt;step1:n</title>
<path fill="none" stroke="black" d="M256.5,-669C256.5,-650.04 256.5,-642.64 256.5,-628.01"/>
<polygon fill="black" stroke="black" points="260,-628.01 256.5,-618.01 253,-628.01 260,-628.01"/>
<text text-anchor="middle" x="264.75" y="-637.7" font-family="Times New Roman,serif" font-size="14.00">No</text>
</g>
<!-- ends -->
<g id="node9" class="node">
<title>ends</title>
<polygon fill="none" stroke="green" points="695.5,-370.5 607.5,-370.5 607.5,-334.5 695.5,-334.5 695.5,-370.5"/>
<text text-anchor="middle" x="651.5" y="-347.45" font-family="Times New Roman,serif" font-size="14.00">End, Success</text>
</g>
<!-- check&#45;&gt;ends -->
<g id="edge4" class="edge">
<title>check:e&#45;&gt;ends:n</title>
<path fill="none" stroke="black" d="M334.97,-710C537.12,-710 647.37,-582.34 651.39,-382.89"/>
<polygon fill="black" stroke="black" points="654.89,-383.05 651.49,-373.01 647.89,-382.98 654.89,-383.05"/>
<text text-anchor="middle" x="627.52" y="-549.2" font-family="Times New Roman,serif" font-size="14.00">Yes</text>
</g>
<!-- step1r -->
<g id="node5" class="node">
<title>step1r</title>
<polygon fill="none" stroke="black" points="256.5,-528 196.25,-487 256.5,-446 316.75,-487 256.5,-528"/>
<text text-anchor="middle" x="256.5" y="-490.2" font-family="Times New Roman,serif" font-size="14.00">Reboot</text>
<text text-anchor="middle" x="256.5" y="-473.7" font-family="Times New Roman,serif" font-size="14.00">needed?</text>
</g>
<!-- step1&#45;&gt;step1r -->
<g id="edge6" class="edge">
<title>step1:s&#45;&gt;step1r:n</title>
<path fill="none" stroke="black" d="M256.5,-580.5C256.5,-561.54 256.5,-554.14 256.5,-539.51"/>
<polygon fill="black" stroke="black" points="260,-539.51 256.5,-529.51 253,-539.51 260,-539.51"/>
</g>
<!-- vstep1 -->
<g id="node6" class="node">
<title>vstep1</title>
<polygon fill="none" stroke="black" points="406.5,-393.5 329,-352.5 406.5,-311.5 484,-352.5 406.5,-393.5"/>
<text text-anchor="middle" x="406.5" y="-355.7" font-family="Times New Roman,serif" font-size="14.00">Revocation</text>
<text text-anchor="middle" x="406.5" y="-339.2" font-family="Times New Roman,serif" font-size="14.00">complete?</text>
</g>
<!-- step1r&#45;&gt;vstep1 -->
<g id="edge7" class="edge">
<title>step1r:e&#45;&gt;vstep1:n</title>
<path fill="none" stroke="black" d="M318.63,-487C361.87,-487 348.14,-440.74 380,-411.5 386.39,-405.63 394.84,-405.52 400.46,-403.1"/>
<polygon fill="black" stroke="black" points="403.33,-405.11 405.7,-394.78 397.41,-401.38 403.33,-405.11"/>
<text text-anchor="middle" x="388.25" y="-414.7" font-family="Times New Roman,serif" font-size="14.00">No</text>
</g>
<!-- step1r&#45;&gt;endf -->
<g id="edge10" class="edge">
<title>step1r:w&#45;&gt;endf:w</title>
<path fill="none" stroke="black" d="M194.38,-487C134.81,-487 182.5,-413.07 182.5,-353.5 182.5,-353.5 182.5,-353.5 182.5,-128.5 182.5,-78.66 179.34,-26.6 221.4,-18.96"/>
<polygon fill="black" stroke="black" points="221.57,-22.46 231.24,-18.13 220.98,-15.48 221.57,-22.46"/>
<text text-anchor="middle" x="192.63" y="-235.95" font-family="Times New Roman,serif" font-size="14.00">Yes</text>
</g>
<!-- step2 -->
<g id="node7" class="node">
<title>step2</title>
<polygon fill="none" stroke="black" points="557.63,-259 437.38,-259 437.38,-223 557.63,-223 557.63,-259"/>
<text text-anchor="middle" x="497.5" y="-235.95" font-family="Times New Roman,serif" font-size="14.00">Apply SVN update</text>
</g>
<!-- vstep1&#45;&gt;step2 -->
<g id="edge9" class="edge">
<title>vstep1:e&#45;&gt;step2:n</title>
<path fill="none" stroke="black" d="M485.73,-352.5C523.85,-352.5 502.33,-309.74 498.16,-270.48"/>
<polygon fill="black" stroke="black" points="501.65,-270.3 497.59,-260.51 494.66,-270.69 501.65,-270.3"/>
<text text-anchor="middle" x="511.94" y="-280.2" font-family="Times New Roman,serif" font-size="14.00">Yes</text>
</g>
<!-- vstep1&#45;&gt;endf -->
<g id="edge8" class="edge">
<title>vstep1:w&#45;&gt;endf:n</title>
<path fill="none" stroke="black" d="M327.28,-352.5C188.5,-352.5 270.88,-187.59 275.32,-47.34"/>
<polygon fill="black" stroke="black" points="278.81,-47.57 275.48,-37.51 271.82,-47.46 278.81,-47.57"/>
<text text-anchor="middle" x="264.02" y="-191.7" font-family="Times New Roman,serif" font-size="14.00">No</text>
</g>
<!-- vstep2 -->
<g id="node8" class="node">
<title>vstep2</title>
<polygon fill="none" stroke="black" points="525.5,-170.5 442.75,-129.5 525.5,-88.5 608.25,-129.5 525.5,-170.5"/>
<text text-anchor="middle" x="525.5" y="-132.7" font-family="Times New Roman,serif" font-size="14.00">SVN update</text>
<text text-anchor="middle" x="525.5" y="-116.2" font-family="Times New Roman,serif" font-size="14.00">complete?</text>
</g>
<!-- step2&#45;&gt;vstep2 -->
<g id="edge11" class="edge">
<title>step2:s&#45;&gt;vstep2:n</title>
<path fill="none" stroke="black" d="M497.5,-223C497.5,-200.89 517.07,-197.54 523.49,-181.59"/>
<polygon fill="black" stroke="black" points="526.89,-182.45 525.23,-171.99 520,-181.2 526.89,-182.45"/>
</g>
<!-- vstep2&#45;&gt;ends -->
<g id="edge12" class="edge">
<title>vstep2:e&#45;&gt;ends:s</title>
<path fill="none" stroke="black" d="M610.03,-129.5C698.75,-129.5 655.45,-232.02 651.75,-322.03"/>
<polygon fill="black" stroke="black" points="648.25,-321.91 651.53,-331.99 655.25,-322.06 648.25,-321.91"/>
<text text-anchor="middle" x="673.34" y="-235.95" font-family="Times New Roman,serif" font-size="14.00">Yes</text>
</g>
<!-- vstep2&#45;&gt;endf -->
<g id="edge13" class="edge">
<title>vstep2:w&#45;&gt;endf:e</title>
<path fill="none" stroke="black" d="M440.98,-129.5C371.31,-129.5 389.54,-29.86 329.49,-18.96"/>
<polygon fill="black" stroke="black" points="330.02,-15.5 319.76,-18.13 329.42,-22.47 330.02,-15.5"/>
<text text-anchor="middle" x="386.39" y="-57.2" font-family="Times New Roman,serif" font-size="14.00">No</text>
</g>
</g>
</svg>
