<?xml version="1.0" encoding="UTF-8" standalone="no"?>
<!DOCTYPE svg PUBLIC "-//W3C//DTD SVG 1.1//EN"
 "http://www.w3.org/Graphics/SVG/1.1/DTD/svg11.dtd">
<!-- Generated by graphviz version 12.2.1 (20241206.2353)
 -->
<!-- Title: G Pages: 1 -->
<svg width="516pt" height="855pt"
 viewBox="0.00 0.00 515.65 854.50" xmlns="http://www.w3.org/2000/svg" xmlns:xlink="http://www.w3.org/1999/xlink">
<g id="graph0" class="graph" transform="scale(1 1) rotate(0) translate(4 850.5)">
<title>G</title>
<polygon fill="white" stroke="none" points="-4,4 -4,-850.5 511.65,-850.5 511.65,4 -4,4"/>
<!-- start -->
<g id="node1" class="node">
<title>start</title>
<polygon fill="none" stroke="black" points="473,-846.5 379,-846.5 379,-805.5 473,-805.5 473,-846.5"/>
<text text-anchor="middle" x="426" y="-829.2" font-family="Times New Roman,serif" font-size="14.00">Begin Phase 1</text>
<text text-anchor="middle" x="426" y="-812.7" font-family="Times New Roman,serif" font-size="14.00">Remediation</text>
</g>
<!-- check -->
<g id="node2" class="node">
<title>check</title>
<polygon fill="none" stroke="black" points="426,-768.5 349.25,-727.5 426,-686.5 502.75,-727.5 426,-768.5"/>
<text text-anchor="middle" x="426" y="-730.7" font-family="Times New Roman,serif" font-size="14.00">Already</text>
<text text-anchor="middle" x="426" y="-714.2" font-family="Times New Roman,serif" font-size="14.00">compliant?</text>
</g>
<!-- start&#45;&gt;check -->
<g id="edge1" class="edge">
<title>start:s&#45;&gt;check:n</title>
<path fill="none" stroke="black" d="M426,-805.5C426,-793.68 426,-788.23 426,-780"/>
<polygon fill="black" stroke="black" points="429.5,-780.01 426,-770.01 422.5,-780.01 429.5,-780.01"/>
</g>
<!-- step1 -->
<g id="node3" class="node">
<title>step1</title>
<polygon fill="none" stroke="black" points="342,-634 194,-634 194,-598 342,-598 342,-634"/>
<text text-anchor="middle" x="268" y="-610.95" font-family="Times New Roman,serif" font-size="14.00">Update Secure Boot DB</text>
</g>
<!-- check&#45;&gt;step1 -->
<g id="edge3" class="edge">
<title>check:w&#45;&gt;step1:n</title>
<path fill="none" stroke="black" d="M347.53,-727.5C296.81,-727.5 271.66,-693.84 268.37,-645.27"/>
<polygon fill="black" stroke="black" points="271.88,-645.39 268.05,-635.51 264.88,-645.62 271.88,-645.39"/>
<text text-anchor="middle" x="279.93" y="-655.2" font-family="Times New Roman,serif" font-size="14.00">No</text>
</g>
<!-- ends -->
<g id="node8" class="node">
<title>ends</title>
<polygon fill="none" stroke="green" points="500,-378 412,-378 412,-342 500,-342 500,-378"/>
<text text-anchor="middle" x="456" y="-354.95" font-family="Times New Roman,serif" font-size="14.00">End, Success</text>
</g>
<!-- check&#45;&gt;ends -->
<g id="edge2" class="edge">
<title>check:s&#45;&gt;ends:n</title>
<path fill="none" stroke="black" d="M426,-686.5C426,-552.64 454.32,-517.71 455.93,-389.46"/>
<polygon fill="black" stroke="black" points="459.43,-389.53 455.99,-379.51 452.43,-389.49 459.43,-389.53"/>
<text text-anchor="middle" x="445.7" y="-566.7" font-family="Times New Roman,serif" font-size="14.00">Yes</text>
</g>
<!-- vstep1 -->
<g id="node4" class="node">
<title>vstep1</title>
<polygon fill="none" stroke="black" points="250,-545.5 177.75,-488 250,-430.5 322.25,-488 250,-545.5"/>
<text text-anchor="middle" x="250" y="-499.45" font-family="Times New Roman,serif" font-size="14.00">SB DB</text>
<text text-anchor="middle" x="250" y="-482.95" font-family="Times New Roman,serif" font-size="14.00">update</text>
<text text-anchor="middle" x="250" y="-466.45" font-family="Times New Roman,serif" font-size="14.00">complete?</text>
</g>
<!-- step1&#45;&gt;vstep1 -->
<g id="edge4" class="edge">
<title>step1:s&#45;&gt;vstep1:n</title>
<path fill="none" stroke="black" d="M268,-598C268,-577.57 255.66,-571.89 251.41,-556.53"/>
<polygon fill="black" stroke="black" points="254.93,-556.48 250.19,-547 247.99,-557.36 254.93,-556.48"/>
</g>
<!-- step2 -->
<g id="node5" class="node">
<title>step2</title>
<polygon fill="none" stroke="black" points="318.75,-378 181.25,-378 181.25,-342 318.75,-342 318.75,-378"/>
<text text-anchor="middle" x="250" y="-354.95" font-family="Times New Roman,serif" font-size="14.00">Update Boot Manager</text>
</g>
<!-- vstep1&#45;&gt;step2 -->
<g id="edge6" class="edge">
<title>vstep1:s&#45;&gt;step2</title>
<path fill="none" stroke="black" d="M250,-430.5C250,-417.06 250,-402.16 250,-389.61"/>
<polygon fill="black" stroke="black" points="253.5,-389.94 250,-379.94 246.5,-389.94 253.5,-389.94"/>
<text text-anchor="middle" x="260.12" y="-399.2" font-family="Times New Roman,serif" font-size="14.00">Yes</text>
</g>
<!-- endf -->
<g id="node9" class="node">
<title>endf</title>
<polygon fill="none" stroke="red" points="222.75,-36 139.25,-36 139.25,0 222.75,0 222.75,-36"/>
<text text-anchor="middle" x="181" y="-12.95" font-family="Times New Roman,serif" font-size="14.00">End, Failure</text>
</g>
<!-- vstep1&#45;&gt;endf -->
<g id="edge5" class="edge">
<title>vstep1:w&#45;&gt;endf:w</title>
<path fill="none" stroke="black" d="M176.07,-488C79.59,-488 0,-457.49 0,-361 0,-361 0,-361 0,-128.5 0,-53.68 53.91,-21.22 126.87,-18.23"/>
<polygon fill="black" stroke="black" points="126.81,-21.73 136.74,-18.03 126.67,-14.73 126.81,-21.73"/>
<text text-anchor="middle" x="8.25" y="-258.95" font-family="Times New Roman,serif" font-size="14.00">No</text>
</g>
<!-- step2r -->
<g id="node6" class="node">
<title>step2r</title>
<polygon fill="none" stroke="black" points="250,-305 189.75,-264 250,-223 310.25,-264 250,-305"/>
<text text-anchor="middle" x="250" y="-267.2" font-family="Times New Roman,serif" font-size="14.00">Reboot</text>
<text text-anchor="middle" x="250" y="-250.7" font-family="Times New Roman,serif" font-size="14.00">needed?</text>
</g>
<!-- step2&#45;&gt;step2r -->
<g id="edge7" class="edge">
<title>step2&#45;&gt;step2r</title>
<path fill="none" stroke="black" d="M250,-341.76C250,-334.6 250,-325.89 250,-316.93"/>
<polygon fill="black" stroke="black" points="253.5,-317.06 250,-307.06 246.5,-317.06 253.5,-317.06"/>
</g>
<!-- vstep2 -->
<g id="node7" class="node">
<title>vstep2</title>
<polygon fill="none" stroke="black" points="368,-170.5 273.25,-129.5 368,-88.5 462.75,-129.5 368,-170.5"/>
<text text-anchor="middle" x="368" y="-132.7" font-family="Times New Roman,serif" font-size="14.00">Boot Manager</text>
<text text-anchor="middle" x="368" y="-116.2" font-family="Times New Roman,serif" font-size="14.00">updated?</text>
</g>
<!-- step2r&#45;&gt;vstep2 -->
<g id="edge9" class="edge">
<title>step2r:e&#45;&gt;vstep2:n</title>
<path fill="none" stroke="black" d="M312.13,-264C356.75,-264 366.58,-225.68 367.85,-181.77"/>
<polygon fill="black" stroke="black" points="371.34,-182.06 367.98,-172.01 364.34,-181.97 371.34,-182.06"/>
<text text-anchor="middle" x="375.72" y="-191.7" font-family="Times New Roman,serif" font-size="14.00">No</text>
</g>
<!-- step2r&#45;&gt;endf -->
<g id="edge8" class="edge">
<title>step2r:w&#45;&gt;endf</title>
<path fill="none" stroke="black" d="M187.87,-264C101.77,-264 147.49,-110.93 170.43,-46.77"/>
<polygon fill="black" stroke="black" points="173.62,-48.24 173.77,-37.65 167.05,-45.84 173.62,-48.24"/>
<text text-anchor="middle" x="166.49" y="-124.45" font-family="Times New Roman,serif" font-size="14.00">Yes</text>
</g>
<!-- vstep2&#45;&gt;ends -->
<g id="edge10" class="edge">
<title>vstep2:e&#45;&gt;ends:s</title>
<path fill="none" stroke="black" d="M464.64,-129.5C555.38,-129.5 463.94,-238.22 456.48,-330.54"/>
<polygon fill="black" stroke="black" points="452.98,-330.35 456.06,-340.49 459.98,-330.64 452.98,-330.35"/>
<text text-anchor="middle" x="497.53" y="-258.95" font-family="Times New Roman,serif" font-size="14.00">Yes</text>
</g>
<!-- vstep2&#45;&gt;endf -->
<g id="edge11" class="edge">
<title>vstep2:s&#45;&gt;endf:e</title>
<path fill="none" stroke="black" d="M368,-88.5C368,-56.03 278.06,-24.26 235,-18.82"/>
<polygon fill="black" stroke="black" points="235.49,-15.34 225.26,-18.11 234.98,-22.33 235.49,-15.34"/>
<text text-anchor="middle" x="366.76" y="-57.2" font-family="Times New Roman,serif" font-size="14.00">No</text>
</g>
</g>
</svg>
